<svg id="BACKGROUND" xmlns="http://www.w3.org/2000/svg" viewBox="0 0 459.57 459.57"><defs><style>.cls-1{fill:#fff;}.cls-2{fill:#ff6702;}.cls-3{fill:#ff6906;}</style></defs><circle class="cls-1" cx="229.79" cy="229.79" r="229.79"/><path class="cls-2" d="M189.39,284.84c-5.12,3.23-10.71,5.55-16.14,8.16a255.13,255.13,0,0,1-31.92,13,197.83,197.83,0,0,1-38.08,8.44c-6.28.74-12.57,1.13-18.87,1.51-2.66.15-5.28,1-8,.7-11.37-1.32-22.87-1.88-33.55-6.76-13.07-6-21.56-15.48-24.31-29.92-1.44-7.56-.53-14.85,1.18-22.13,2.49-10.55,7.21-20.14,13-29.3a273.85,273.85,0,0,1,27-36.47,261.23,261.23,0,0,1,49.44-43.25c22.68-15.34,47.12-27.13,72.89-36.27a305.91,305.91,0,0,1,49.92-13.37c6.88-1.2,13.84-1.85,20.77-2.65a117.2,117.2,0,0,1,20.93-.36c15.89,1,31.62,3.23,46.06,10.7,8.7,4.51,15.94,10.59,20.7,19.32A43,43,0,0,1,345,141.43c1.46,11.23-1.33,21.64-6.13,31.66-5.75,12-13.33,22.82-21.31,33.4-9.52,12.62-19.77,24.65-29.72,36.93-5.62,6.91-11.34,13.75-16.28,21.18a35.06,35.06,0,0,0-4,7.6,20.6,20.6,0,0,0-.84,2.74c-.82,4.07.85,6.63,4.89,7.73,3.78,1,7.63.8,11.43.44,6.38-.6,12.76-1.29,19.12-2.11a366.78,366.78,0,0,0,38.65-7.23,549.69,549.69,0,0,0,70.85-22.64c11.87-4.62,23.63-9.5,35.35-14.47a4.89,4.89,0,0,1,2.17-.71l.59.49a88.5,88.5,0,0,1-9.49,5.92C426.36,250.48,412.11,258,397.64,265a697.27,697.27,0,0,1-71,30.38c-15.81,5.64-31.81,10.59-48.4,13.44a98.5,98.5,0,0,1-20,1.79c-5.75-.19-11.47-.79-16.76-3.35-7.39-3.58-10.94-9.61-11.21-17.68-.25-7.36,2.41-13.92,5.83-20.19,5.67-10.4,13.1-19.55,20.77-28.51,13.2-15.42,26.77-30.52,39.32-46.48,7.34-9.34,14.5-18.82,20.33-29.22a42.18,42.18,0,0,0,4.78-12.57c1.42-7.31-1.53-13.14-6.86-17.89-4.78-4.26-10.49-7-16.36-9.43-8.87-3.67-18.06-6.36-27.23-9.1-2.3-.68-4.62-1.27-6.91-2a2.61,2.61,0,0,0-2.44.2c-1.91,1.26-3.86,2.44-5.93,3.74L269,129.63c-4,.76-7.34,1.43-10.69,2q-27.7,5-55,12.15c-19,5-37.74,10.8-56.33,17.12-6,2-12,4.13-17.92,6.21-2,.71-2.07.76-1.29,2.83,1.43,3.77,2.82,7.55,4.4,11.25a3.45,3.45,0,0,1-.93,4.46c-6.2,6-12.26,12.18-18.36,18.29a4,4,0,0,0-1.34,1.79,43.81,43.81,0,0,0,8.64,2.34A80.76,80.76,0,0,0,138.48,210a90.24,90.24,0,0,0,23.82-3.4,91.21,91.21,0,0,0,30.83-15.62c.38-.3.74-.61,1.11-.92,1.57-1.35,1.58-1.41.38-3a23.59,23.59,0,0,0-5.2-4.92,6.51,6.51,0,0,1-2.21-1.77c10.43.48,19.35,10.09,19,20.37-.05,1.5-.6,2.1-2.06,1.9-.09,0-.19,0-.29,0-1.42-.1-3.12.56-4.19-.32s-.25-2.53-.42-3.83a7.77,7.77,0,0,0-.93-3.5c-29.69,23.24-62.44,28.59-98.06,16.4a7.39,7.39,0,0,0-.22,2.9c0,7.49-.06,15,0,22.46a2.79,2.79,0,0,1-2.13,3.11A97.35,97.35,0,0,0,70,256.77a38,38,0,0,0-10.31,13.29c-2.57,5.85-2.16,15,6.44,19.53a51,51,0,0,0,9.2,4A91.65,91.65,0,0,0,99.17,297,219.83,219.83,0,0,0,133,295.15a431.28,431.28,0,0,0,47.68-8.93,69.82,69.82,0,0,1,8.66-2.05Z"/><path class="cls-3" d="M401.24,285.88c6.74-.46,13.69,5.06,14.86,12.68A15.21,15.21,0,0,1,406,315.27c-1.18.36-2.45.41-3.51,1.18a1.76,1.76,0,0,1-1.39.14c-3.59-1.21-7.3-2.06-10.13-5a15.26,15.26,0,0,1,6.69-25.37A11.3,11.3,0,0,1,401.24,285.88Zm-12.4,15c.46,7.35,5.37,12.7,12.64,12.62,7.58-.08,12.45-5.65,12.37-12.77a12.43,12.43,0,0,0-13-12.46A12.86,12.86,0,0,0,388.84,300.91Z"/><path class="cls-3" d="M449.76,236.44l-.59-.49a7.92,7.92,0,0,1,3.54-1.53A6.89,6.89,0,0,1,449.76,236.44Z"/><path class="cls-3" d="M189.39,284.84l0-.67,2.58-.95A4.49,4.49,0,0,1,189.39,284.84Z"/><path class="cls-3" d="M371.62,199.75c.24,0,.38.21.47.48a.42.42,0,0,1-.34.59.43.43,0,0,1-.54-.43C371.19,200.12,371.19,199.84,371.62,199.75Z"/><path class="cls-3" d="M404.37,301.4a45.45,45.45,0,0,1,4.69,6.81c-1.48.46-2.47.46-3.24-.91s-1.8-2.71-2.65-4.09c-1.09-1.78-2.84-1.72-4.56-1.73-.91,0-1.06.64-1.06,1.38,0,1.43,0,2.87,0,4.31,0,.71-.11,1.35-1.08,1.31-.75,0-1-.51-1-1.13q0-6.75,0-13.5c0-1,.67-1.23,1.53-1.22,2.2,0,4.41-.08,6.61,0,2.44.13,3.78,1.25,4.18,3.19.47,2.28-.22,3.74-2.36,5C405.13,301.05,404.79,301.19,404.37,301.4Zm-3.31-6.72v0H399.9c-2.36,0-2.36,0-2.36,2.38s0,2.38,2.64,2.39c1.15,0,2.31,0,3.45-.08a2.33,2.33,0,0,0,0-4.64A20.18,20.18,0,0,0,401.06,294.68Z"/></svg>