<?xml version="1.0" encoding="utf-8"?>
<!-- Svg Vector Icons : http://www.onlinewebfonts.com/icon -->
<!DOCTYPE svg PUBLIC "-//W3C//DTD SVG 1.1//EN" "http://www.w3.org/Graphics/SVG/1.1/DTD/svg11.dtd">
<svg version="1.1" xmlns="http://www.w3.org/2000/svg" xmlns:xlink="http://www.w3.org/1999/xlink" x="0px" y="0px" viewBox="0 0 256 256" enable-background="new 0 0 256 256" xml:space="preserve">
<metadata> Svg Vector Icons : http://www.onlinewebfonts.com/icon </metadata>
<g><g><path fill="#000000" d="M223,10"/><path fill="#000000" d="M206.7,246c-4.3,0-7.7-3.5-7.7-7.7c0-7.8-17.7-17.5-51.4-21c-3.9-0.4-6.9-3.7-6.9-7.7v-14.1c0-4.3,3.5-7.7,7.7-7.7s7.7,3.5,7.7,7.7v7.2l0.5,0.1c36.7,5.1,57.8,18,57.8,35.5c0,2-0.8,4-2.2,5.4C210.7,245.2,208.8,246,206.7,246z M41.1,246c-4.2,0-7.7-3.5-7.7-7.7c0-17.4,21.1-30.4,57.8-35.5l0.5-0.1v-3.2l-0.2-0.2c-25-19.1-25-55-25-76.5c0-35.6,21-56.9,56.1-56.9h1.9c35.1,0,56.1,21.3,56.1,56.9c0,2.6,0,5.3-0.1,8c-0.1,4.2-3.5,7.5-7.7,7.5c-4.5-0.1-7.8-3.7-7.8-7.9c0.1-2.6,0.1-5.1,0.1-7.6c0-27.5-13.7-41.5-40.6-41.5h-1.9c-27,0-40.6,13.9-40.6,41.5c0,26.5,1.7,53.4,21.6,66.1c2.2,1.4,3.6,3.9,3.6,6.5v14.1c0,3.9-3,7.3-6.9,7.7c-33.4,3.5-51.4,13.5-51.4,21C48.8,242.5,45.4,246,41.1,246z M149.7,172.1c-10.8,0-19.3-1.1-19.9-1.2c-3.8-1.2-6-5-5.3-8.9c0.7-3.6,3.9-6.1,7.6-6.1c0.3,0,0.5,0,0.8,0c4.9,0.5,10.4,0.8,15.8,0.8c8.5,0,36.7-0.9,42.2-12.2c1.3-2.7,4-4.4,6.9-4.4c1.2,0,2.3,0.3,3.3,0.8c3.8,1.8,5.4,6.5,3.6,10.3C196.5,168.5,170.2,172.1,149.7,172.1z M222.7,163.5c-4.2,0-7.7-3.5-7.7-7.7v-29.2l-11.4-4c-3.1-1.1-5.1-4-5.1-7.3c0-41.6-33.5-75.5-74.7-75.5c-41.2,0-74.7,33.9-74.7,75.5c0,2.5-1.2,4.8-3.2,6.3l-5,3.6v30.6c0,4.3-3.5,7.7-7.7,7.7c-4.3,0-7.7-3.5-7.7-7.7v-34.6c0-2.5,1.2-4.8,3.2-6.3l5.1-3.6l0-0.3c2.2-48.6,41.8-86.6,90-86.6c47.4,0,86.9,37.4,89.9,85.1l0,0.3l11.5,4.1c3.1,1.1,5.1,4,5.1,7.3v34.6C230.4,160.1,227,163.5,222.7,163.5z"/></g></g>
</svg>